# xmcd
#
# Track frame offsets:
#	150
#	16318
#	29872
#	48640
#
# Disc length: 793 seconds
#
# Revision: 1
# Processed by: cddbd v1.5.1PL0 Copyright (c) Steve Scherf et al.
# Submitted via: EasyCDDAExtractor 5.0.6
#
DISCID=32031704
DTITLE=Youth Group - Shadowland
DYEAR=2003
DGENRE=Indie
TTITLE0=Shadowland
TTITLE1=Rosie And The Sea
TTITLE2=For The Night
TTITLE3=Waiting For A Bus
EXTD=YEAR: 2003
EXTT0=
EXTT1=
EXTT2=
EXTT3=
PLAYORDER=
